<svg xmlns="http://www.w3.org/2000/svg" viewBox="0 0 49.73 8.64"><title>etalon_logo</title><g id="Layer_2" data-name="Layer 2"><g id="Layer_1-2" data-name="Layer 1"><path d="M4.44,8.56H1.58A8.17,8.17,0,0,1,0,8.4V6.86H4a.61.61,0,0,0,.44-.15.54.54,0,0,0,.16-.41V5.22H1.37V3.54H4.56v-1a.64.64,0,0,0-.72-.72H.12V.12h4.2A2.52,2.52,0,0,1,6.15.68,2.47,2.47,0,0,1,6.72,2.5V6.3A2.32,2.32,0,0,1,6.17,8,2.37,2.37,0,0,1,4.44,8.56Z" fill="#5ac1ff"/><path d="M12.4,8.52H10.24V1.8H7.72V.12h7.2V1.8H12.4Z" fill="#5ac1ff"/><path d="M16.73,8.52H14.39L17.57.12H20l3.18,8.4H20.81L20.27,7h-3Zm1.08-3.06h1.92l-1-2.82Z" fill="#5ac1ff"/><path d="M27,6.78a2.07,2.07,0,0,1-.55,1.36,1.76,1.76,0,0,1-1.31.5l-.45,0-.4,0-.41-.06V6.9h.54a.5.5,0,0,0,.38-.16.58.58,0,0,0,.16-.38L25.3.12H32v8.4H29.8V1.8H27.28Z" fill="#5ac1ff"/><path d="M41.08,6.24a2.51,2.51,0,0,1-.57,1.83,2.51,2.51,0,0,1-1.83.57h-3a2.51,2.51,0,0,1-1.83-.57,2.51,2.51,0,0,1-.57-1.83V2.4A2.51,2.51,0,0,1,33.85.57,2.51,2.51,0,0,1,35.68,0h3a2.51,2.51,0,0,1,1.83.57,2.51,2.51,0,0,1,.57,1.83ZM38.92,2.4a.64.64,0,0,0-.72-.72h-2a.64.64,0,0,0-.72.72V6.24a.64.64,0,0,0,.72.72h2a.64.64,0,0,0,.72-.72Z" fill="#5ac1ff"/><path d="M49.73,8.52H47.57V5.1h-3V8.52H42.41V.12h2.16v3.3h3V.12h2.16Z" fill="#5ac1ff"/></g></g></svg>